<?xml version="1.0" encoding="utf-8"?>
<!-- Generator: Adobe Illustrator 22.0.1, SVG Export Plug-In . SVG Version: 6.00 Build 0)  -->
<svg version="1.1" id="Layer_1" xmlns="http://www.w3.org/2000/svg" xmlns:xlink="http://www.w3.org/1999/xlink" x="0px" y="0px"
	 viewBox="0 0 1280 1024" style="enable-background:new 0 0 1280 1024;" xml:space="preserve">
<style type="text/css">
	.st0{opacity:0.29;}
	.st1{fill:#9FD18C;}
</style>
<g class="st0">
	<path class="st1" d="M306.5,23c-22.4,4.4-41.4,19.8-50.2,40.8c-5.6,13.3-5.9,18.2-5.9,87.8V215h-21.8c-16.5,0-23.2,0.4-27.7,1.5
		c-27.4,7.2-36.1,41.6-15.4,60.9c9.2,8.6,10.8,9,39.7,9.3l25.2,0.3V323v35.9l-25.3,0.3l-25.3,0.3l-5.8,2.9
		c-7.6,3.9-14.9,11.8-17.7,19.4c-5.8,15.3-0.4,33.3,12.7,42.3c8.7,6,13.8,6.9,38.9,6.9h22.4v35.5V502h-21.8
		c-16.5,0-23.2,0.4-27.7,1.5c-27.4,7.2-36.1,41.6-15.4,60.9c9.2,8.6,10.8,9,39.7,9.3l25.2,0.3l0.2,185.2
		c0.3,207.7-0.5,188.6,7.8,205.5c8.4,17.2,26,31.4,44.1,35.7c5.5,1.3,47.9,1.5,338.3,1.5c367.4,0,337.7,0.6,352-6.5
		c13.4-6.6,23.7-17.1,30.6-31c7.6-15.5,7.4-13.2,7.4-86v-65l-3.1-6.6c-3.9-8.2-9.7-14.2-17.2-17.7c-5-2.3-7-2.7-15.7-2.7
		c-9.5,0-10.3,0.2-16.3,3.4c-7.5,4-12.5,9.4-16.1,17l-2.6,5.6l-0.3,58.8l-0.3,58.8h-318h-318V752.6V575.2l6.2-0.7
		c14.1-1.6,24.1-8.4,30-20.3c3-6.1,3.3-7.5,3.3-15.7c0-8.2-0.3-9.6-3.3-15.7c-5.9-11.9-15.9-18.7-30-20.3l-6.2-0.7v-35.3v-35.3
		l7.2-0.6c12.8-1.1,23.7-8.6,29.5-20.5c2.5-5,2.8-6.8,2.8-15.2c0-8.4-0.3-10.2-2.8-15.2c-5.8-11.9-17.1-19.7-29.7-20.6l-7-0.5v-35.3
		v-35.3l6.2-0.7c14.1-1.6,24.1-8.4,30-20.3c3-6.1,3.3-7.5,3.3-15.7c0-8.2-0.3-9.6-3.3-15.7c-5.9-11.9-15.9-18.7-30-20.3l-6.2-0.7
		v-59.9V95h318h318l-0.3,132.3l-0.3,132.2l-235,0.5l-235,0.5l-4.7,2.2c-6.5,3-14.3,10.5-17.3,16.7c-9.2,18.8-1.7,40,17.3,48.9
		l6.7,3.2l253.4,0.2c279.8,0.3,260,0.7,270.4-6c6.9-4.4,12.3-11.6,14.7-19.6c2-6.6,2-8.6,1.8-166.7c-0.3-179.7,0.4-163.6-7.9-180.5
		c-6-12.2-18-24.2-29.8-29.8c-16.6-7.9,15.7-7.2-352.7-7.1C458.5,22.1,308.9,22.5,306.5,23L306.5,23z"/>
	<path class="st1" d="M524.4,465.4c-31.3,6.6-55.2,29.4-63,60c-2.7,10.7-2.7,27,0,38.3c7.2,29.9,31,53,61.7,59.8
		c11.2,2.5,30,1.6,40.6-1.9c4.3-1.4,9.7-3.6,12-4.7c14.4-7.3,28.2-21.2,35.6-35.7l2.1-4.2l103.3-0.3l103.3-0.2l5.6-2.7
		c6.6-3.2,14.2-11,17.2-17.6c3.1-6.8,3.1-21.6,0-28.4c-3-6.6-10.6-14.3-17.2-17.6l-5.6-2.7l-104.5-0.3l-104.5-0.3l-3.3-5.5
		c-9.5-15.7-27.6-29.1-46.4-34.5C551.7,464.2,533.4,463.4,524.4,465.4L524.4,465.4z M555.2,514c3.4,1.8,7.8,5.1,9.8,7.3
		c9.2,10.2,11.6,25.2,6,37.5c-3.7,7.9-11.4,15.2-19.4,18.2c-8.7,3.3-19.5,2.5-28-2c-6.9-3.7-12-8.9-15.4-15.9
		c-3.1-6.2-3.7-19.1-1.2-25.9C514,513.4,536.9,504.2,555.2,514L555.2,514z"/>
	<path class="st1" d="M1063.7,498.1c-10.6,1.4-14.5,4.1-39,28C907.9,639.8,838.1,707.5,837.5,707.7c-0.5,0.2-14.3-13.7-30.8-30.8
		c-16.4-17.1-31.9-32.4-34.3-34c-14.6-9.4-33.8-6.7-45.8,6.5c-7.2,7.8-9.5,14.5-9,25.6c0.7,14.3,0.1,13.5,50.7,66.4
		c40.7,42.6,45.5,47.3,51.7,50.5c6.3,3.3,7.4,3.5,16.4,3.5c14.8,0,17.1-1.4,40.4-24.2c10.6-10.4,63.3-61.8,117.2-114.4
		s99.9-97.7,102.2-100.4c11.7-13.3,11.3-33.6-0.9-47C1087,500.5,1076,496.5,1063.7,498.1L1063.7,498.1z"/>
</g>
</svg>
