<?xml version="1.0" encoding="utf-8"?>
<!-- Generator: Adobe Illustrator 22.0.1, SVG Export Plug-In . SVG Version: 6.00 Build 0)  -->
<svg version="1.1" id="Layer_1" xmlns="http://www.w3.org/2000/svg" xmlns:xlink="http://www.w3.org/1999/xlink" x="0px" y="0px"
	 viewBox="0 0 1280 1024" style="enable-background:new 0 0 1280 1024;" xml:space="preserve">
<style type="text/css">
	.st0{opacity:0.29;fill:#9FD18C;}
</style>
<g>
	<path class="st0" d="M500.8,23.6c-7.7,2.3-14.6,8.7-17.4,16.2c-1.5,3.9-1.6,8.4-1.4,37.8c0.3,37.4,0.1,36.4,7.9,44
		c9.8,9.6,26.4,9.3,36.3-0.6c6.5-6.5,7.6-10.7,7.6-29.6V75.7h215.5h215.5v47.5v47.5l-53.3,0.3c-59.4,0.3-56.9,0-64.5,7.6
		c-5,5-7.2,10.5-7.2,18.2c0,10.7,4.9,18.8,14.2,23.4l5.2,2.6h29.3h29.3l0.3,38.3l0.3,38.3l2.7,5.1c2.8,5.3,6.7,9.2,12.2,12.2
		c2.7,1.4,7.3,1.8,32.6,2.2l29.5,0.5l0.3,39.7l0.3,39.7l-58.8,0.3c-58.2,0.3-58.8,0.3-62.8,2.5c-17.6,9.4-19.3,34.1-3.1,45
		c2.6,1.7,7,3.6,9.8,4.2c3.3,0.7,24.2,1.1,60,1.1h55v94.5v94.5h-56.3c-61.9,0-62.7,0.1-69.9,6c-2.1,1.7-5,5.2-6.5,7.8
		c-2.4,4.1-2.8,5.8-2.8,12.7c0,6.9,0.4,8.6,2.8,12.7c1.5,2.6,4.4,6.1,6.5,7.8c7.2,5.9,8,6,69.9,6h56.3v40.5v40.4l-55.3,0.3
		l-55.3,0.3l-5.5,3c-16.4,9-18.9,30.9-4.9,42.8c7.9,6.8,6.7,6.7,81.9,6.7c75.6,0,74.6,0.1,82.2-6.8c2.3-2.1,5.1-5.9,6.4-8.7l2.3-5
		V547.7c0-175.7-0.3-260.7-1-263.2c-1.6-5.7-6.9-11.9-12.9-15l-5.3-2.8h-28.9h-28.9v-22v-22h13.3c10.7,0,14-0.4,17.3-1.9
		c5.8-2.7,10.8-7.4,13.6-12.9l2.3-4.7l0.3-77.9c0.3-86,0.4-84.2-6.1-92.7c-1.8-2.4-5.4-5.3-8.2-6.8l-5-2.6L750.8,23
		C614.7,22.9,502.2,23.2,500.8,23.6L500.8,23.6z"/>
	<path class="st0" d="M599.4,94.1c-5.7,2-10.8,6.6-14.1,12.7c-2.8,5-3,6.1-3,15.9c0,9,0.3,11.2,2.3,15.2c2.9,5.8,9.7,12,15,13.6
		c5.5,1.7,14.5,1.5,19-0.4c4.8-2,10.8-7.8,13.5-13c2.8-5.5,3.5-19.1,1.4-26.6C629.3,97.2,613.6,89.1,599.4,94.1L599.4,94.1z"/>
	<path class="st0" d="M693.4,94.1c-5.9,2.1-10.8,6.6-14.1,13.1c-2.8,5.4-3,6.5-2.9,15.9c0.1,11.2,1.3,15.1,6.6,21.1
		c9.4,10.7,27.7,11.4,37.6,1.4c6.4-6.4,7.7-10.2,7.7-23c0-9.9-0.3-12.1-2.2-15.5C719.7,95.3,705.7,89.8,693.4,94.1L693.4,94.1z"/>
	<path class="st0" d="M787.3,94.3c-5.9,2.1-11,6.8-14.1,13c-2.4,4.8-2.7,6.7-2.8,15.2c0,7.9,0.4,10.6,2.2,14.7
		c4.6,10.2,12.9,15.5,24.2,15.4c7.7,0,13.2-2.2,18.2-7.2c6.1-6.1,7.3-9.8,7.3-22.7c0-9.9-0.3-12.1-2.2-15.5
		C813.7,95.2,799.9,89.8,787.3,94.3L787.3,94.3z"/>
	<path class="st0" d="M882.3,94c-7.8,3-13.7,8.8-16.4,16c-1.8,4.9-1.3,22.6,0.8,27.2c2.8,6,6.7,10.1,12.4,13
		c10.6,5.3,24.7,2.4,31.7-6.5c4.5-5.7,6-11,6-21.4c0-7.4-0.4-10-2.3-14.1c-2.8-6-10.1-12.7-15.5-14.3
		C894.1,92.4,886.3,92.4,882.3,94L882.3,94z"/>
	<path class="st0" d="M281.2,198.8c-6.4,1.9-12.7,7.2-15.9,13.4l-3,5.9v80c0,88.6-0.4,83,6.7,91.1c1.9,2.1,5.5,4.8,8.3,6.1
		c4.5,2.1,6.5,2.4,18.3,2.4h13.3v21.9v22l-29.8,0.3c-26.2,0.3-30.1,0.5-32.9,2c-4.2,2.3-9.8,7.9-12.1,12.1c-1.7,3-1.8,16.8-2,264.2
		c-0.2,241.4-0.1,261.3,1.4,265.4c2.1,5.5,7.4,11.6,12.8,14.4l4.1,2.2l278,0.2c305.3,0.3,282.8,0.7,290.6-5.7
		c1.9-1.6,4.9-5.3,6.5-8.2l3-5.3l0.2-258.9c0.3-284.8,0.7-265-5.7-272.8c-1.7-2.1-5.2-5-7.8-6.5l-4.7-2.8l-29.3-0.3l-29.3-0.3v-21.3
		V399l13.1-0.5c11.9-0.5,13.6-0.8,18.7-3.4c6.2-3.2,11.5-9.3,13.2-15.1c0.7-2.4,1-31.3,1-82.7v-79l-2.3-5c-1.3-2.8-4.2-6.6-6.5-8.7
		c-8.1-7.3,13-6.8-259.6-6.7C385.7,197.8,283.1,198.2,281.2,198.8L281.2,198.8z M745.8,298.2v47.5H530.3H314.8v-47.5v-47.5h215.5
		h215.5V298.2L745.8,298.2z M699,436.4c0.3,37.5,0.4,38.9,2.4,42.8c2.8,5.3,7.9,10,13.4,12.5c4.2,1.9,6.5,2,32.8,2h28.3v40v40h-246
		h-246l0.2-39.8l0.3-39.8l29.6-0.5l29.6-0.5l4.9-3c6-3.7,10.9-10.6,12.3-17.5c0.7-3.1,1.1-18.6,1.1-40v-35h168.5h168.5L699,436.4
		L699,436.4z M775.8,721.2v94.5h-246h-246v-94.5v-94.5h246h246V721.2L775.8,721.2z M775.8,909.2v40.5h-246h-246v-40.5v-40.5h246h246
		V909.2L775.8,909.2z"/>
	<path class="st0" d="M381.8,268.6c-7.6,2.4-13.6,7.8-16.9,15.1c-2.3,5.1-2.9,19.6-1,26.2c1.7,5.9,6.9,11.9,13.3,15.2
		c13.9,7.1,30.5,0.8,36.1-13.7c2.3-5.9,1.8-24.5-0.7-29.2c-2.3-4.2-8.4-10-12.7-12.1C395.9,268.1,385.8,267.3,381.8,268.6
		L381.8,268.6z"/>
	<path class="st0" d="M475.8,268.6c-7.1,2.3-13.2,7.4-16.6,14.1c-2.6,5-3.2,21.2-1,27.5c2.3,6.7,7,12,13.3,15.1
		c13.5,6.6,29.3,0.9,35.3-12.8c3.1-7.2,3.3-22,0.2-28.9c-2.4-5.5-7.6-10.9-12.9-13.4C490,268.2,479.9,267.3,475.8,268.6L475.8,268.6
		z"/>
	<path class="st0" d="M569.8,268.6c-8.1,2.5-14.9,9.1-17.6,17.3c-1.2,3.7-1.5,7.4-1.2,14.2c0.3,8,0.8,9.9,3.4,14.6
		c9,16,30.2,18.2,42.3,4.3c5.2-5.9,6.3-9.7,6.4-20.8c0.1-9-0.2-10.6-2.7-15.7c-3.2-6.6-8.2-11.1-14.6-13.3
		C581.2,267.6,574,267.3,569.8,268.6L569.8,268.6z"/>
	<path class="st0" d="M662.7,269c-8.6,3-15,10.3-17,19.1c-1.7,7.5-0.7,20,1.8,25.1c8.6,16.8,30.3,19.9,42.7,6.2
		c5.8-6.4,6.9-9.9,6.9-21.8c0-9.8-0.2-10.9-2.9-15.8c-1.6-2.9-4.6-6.7-6.4-8.2C681.3,268.2,670.6,266.2,662.7,269L662.7,269z"/>
	<path class="st0" d="M471.5,697.3c-3.3,1-6.4,3-9.6,6.3c-14.3,14.3-8,38,11.6,43.7c8,2.3,111.2,1.7,116.5-0.7
		c12.5-5.7,18.8-19.7,14.8-33.1c-1.5-5-7.9-12.3-13.3-15.1c-4.1-2.2-4.5-2.2-59.6-2.4C484.7,695.8,475.6,696,471.5,697.3
		L471.5,697.3z"/>
</g>
</svg>
