<?xml version="1.0" encoding="utf-8"?>
<!-- Generator: Adobe Illustrator 22.0.1, SVG Export Plug-In . SVG Version: 6.00 Build 0)  -->
<svg version="1.1" id="Layer_1" xmlns="http://www.w3.org/2000/svg" xmlns:xlink="http://www.w3.org/1999/xlink" x="0px" y="0px"
	 viewBox="0 0 1280 1024" style="enable-background:new 0 0 1280 1024;" xml:space="preserve">
<style type="text/css">
	.st0{fill:#272D3B;}
</style>
<g>
	<path class="st0" d="M625.3,24.8c-13.9,3.6-26,11.6-34,22.4l-4.7,6.4l-27.1,0.4c-26.6,0.4-27.2,0.5-35.1,3.2
		c-11.5,4-20.8,9.8-30,18.8l-7.9,7.8l-82.5,0.3c-76.7,0.3-83,0.5-89,2.2c-27.8,7.8-47.5,27.6-55.6,55.6c-1.8,6.3-1.9,18.5-2.1,397.5
		c-0.3,427.6-0.6,400,5.4,415c6.7,16.7,21,32.2,36.7,40c17.9,8.8-18.4,8,340.6,8c359.5,0,322.6,0.9,341-8.1c8.1-4,10.9-6.1,19-14.3
		c10.7-10.8,16.2-19.9,20.2-33.7l2.3-7.9v-395c0-379.5-0.1-395.3-1.8-401.4c-8.7-30.7-33.5-52.8-64-57c-5-0.7-35.4-1.1-85.7-1.1H793
		l-5.8-6.1c-10.6-11.2-23-18.4-37.4-21.9c-7.2-1.7-11.8-2-32.5-2h-24l-4.8-6.4C673.6,27.9,648.4,18.8,625.3,24.8L625.3,24.8z
		 M650.3,55.5c6.4,2.2,14,9.5,17.9,17.4c5.6,11.1,5.2,11,38.1,11c38.4,0,45.2,1.6,57.7,14c11.9,11.7,13.9,19.5,13.9,53.3v24.7h-138
		h-138v-24.7c0-33.8,2-41.6,13.9-53.3c12.5-12.4,19.3-14,57.7-14c32.9,0,32.5,0.1,38.1-11c3.8-7.7,11.4-15.1,17.5-17.3
		C634.8,53.6,644.5,53.6,650.3,55.5L650.3,55.5z M472.1,155.1c-0.3,45.7-0.4,45.2,7.8,49.5l4.3,2.3h155.6h155.6l4.5-2.3
		c2.6-1.3,5.3-3.7,6.5-5.8c1.9-3.3,2-5.2,2-40.5c0-20.4-0.3-38.5-0.7-40.3l-0.7-3.3h72.7c78,0,77.4,0,87.7,5.2
		c11.1,5.7,19.9,16.5,22.9,28c1.5,5.8,1.6,35.5,1.4,397.8l-0.3,391.5l-3.6,7.5c-4.5,9.2-9.5,15.2-17.1,20
		c-11.9,7.7,18.6,7.1-333.3,6.8l-315-0.3l-7.8-3.7c-13.2-6.3-22.7-18.1-25.6-31.6c-0.8-3.9-1.1-109.6-1.1-393.1
		c0-425.1-0.5-392.9,5.8-404.5c3.5-6.5,11.3-14.3,17.8-17.8c10.6-5.7,9.8-5.7,88.4-5.7l72.5,0L472.1,155.1L472.1,155.1z"/>
	<path class="st0" d="M635.5,84.9c-6.6,2-11.1,8.9-10.4,16.1c0.6,6.2,3.7,10.4,9.3,12.5c11,4.2,21.4-3.9,20.3-15.8
		c-0.6-5.9-5-11.2-10.8-12.8C639.8,83.7,639.4,83.7,635.5,84.9L635.5,84.9z"/>
	<path class="st0" d="M323.3,150.1c-3.9,3.9-4.3,4.8-4.9,10.8c-0.4,3.6-0.5,178.2-0.4,388l0.3,381.5l2.3,3.7c1.4,2.2,4,4.5,6.6,5.8
		l4.2,2H640h308.5l4.5-2.3c2.6-1.3,5.3-3.7,6.5-5.8c2-3.5,2-3.9,2-390.5v-387l-2.2-3.5c-4.5-7.3-2.3-7-59-7h-51l-3.3,2.3
		c-9.5,6.5-9,18.7,1,25.5c3.3,2.2,3.5,2.2,43.7,2.2h40.3v367.5v367.5h-291h-291V543.4V175.9H389c39.4,0,40.2,0,44-2.2
		c4.3-2.4,7.9-8.5,7.9-13.4c0-4.1-3.1-9.5-7-12.2l-3.3-2.2h-51.5h-51.5L323.3,150.1L323.3,150.1z"/>
</g>
</svg>
