<?xml version="1.0" encoding="utf-8"?>
<!-- Svg Vector Icons : http://www.onlinewebfonts.com/icon -->
<!DOCTYPE svg PUBLIC "-//W3C//DTD SVG 1.1//EN" "http://www.w3.org/Graphics/SVG/1.1/DTD/svg11.dtd">
<svg version="1.1" xmlns="http://www.w3.org/2000/svg" xmlns:xlink="http://www.w3.org/1999/xlink" x="0px" y="0px" viewBox="0 0 1000 1000" enable-background="new 0 0 1000 1000" xml:space="preserve">
<metadata> Svg Vector Icons : http://www.onlinewebfonts.com/icon </metadata>
<g><g transform="translate(0.000000,511.000000) scale(0.100000,-0.100000)"><path d="M3315.2,4997.5C2476,4951.6,1652.7,4562.9,1052.7,3933C-105.5,2717-221.1,831.2,779.6-512.4c131.6-175.4,422.6-478.4,602-625.9c560.2-458.5,1259.9-723.6,2023.3-769.5c653.8-37.9,1433.3,167.5,1989.4,522.3c57.8,37.9,111.6,67.8,119.6,67.8c8,0,117.6-103.7,241.2-227.3l229.2-229.2l-153.5-159.5c-137.6-145.5-153.5-169.4-153.5-239.2c0-63.8,15.9-95.7,75.7-165.4c149.5-165.4,2358.2-2376.2,2412-2412.1c29.9-19.9,89.7-35.9,133.6-35.9c75.8,0,93.7,15.9,831.3,753.5c500.3,500.4,755.5,769.5,765.5,805.4c6,31.9,6,79.7,0,109.6C9875.6-3040,7423.7-588.1,7347.9-568.2c-95.7,21.9-157.5-10-315-161.5l-151.5-147.5l-233.2,233.2L6413-408.7l115.6,187.4c193.4,322.9,350.8,735.6,434.6,1156.2c43.9,213.3,59.8,761.5,31.9,1012.7c-167.4,1441.3-1222,2633.3-2619.3,2964.2C4008.9,4997.5,3727.9,5021.4,3315.2,4997.5z M4172.4,4523.1c285-61.8,464.5-123.6,737.6-259.1c743.5-368.8,1303.7-1026.6,1542.9-1808c103.6-338.9,129.6-518.3,129.6-903c0-402.7-39.9-655.8-159.5-998.7c-313-897.1-1032.6-1604.7-1921.7-1887.8c-362.8-115.6-490.4-133.6-946.9-133.6c-364.8,0-444.5,6-625.9,45.8c-600,135.5-1074.5,396.7-1507,829.3C775.6,53.8,474.6,863.1,536.4,1780.1c65.8,982.8,625.9,1875.8,1499.1,2396.1c303,179.4,757.5,336.9,1114.3,384.7C3389,4592.8,3941.2,4572.9,4172.4,4523.1z M6375.1-968.8l209.3-209.3l-149.5-149.5l-149.5-149.5l-213.3,213.3l-215.3,215.3L6000.4-905c79.7,79.7,149.5,145.5,155.5,145.5S6259.5-853.2,6375.1-968.8z M8348.6-2125l1046.6-1046.6L8841-3723.8l-552.2-554.2L7238.3-3227.4L6185.8-2174.9l548.2,548.2c301,301,552.2,548.2,558.2,548.2S7772.5-1548.9,8348.6-2125z"/><path d="M3155.8,4174.2C2017.5,3996.8,1120.5,3103.7,941.1,1971.5c-39.9-249.2-29.9-745.5,19.9-966.8C1186.2-6,1935.8-781.5,2930.5-1030.6c281.1-71.8,755.5-87.7,1054.5-39.9c633.9,105.7,1208,432.6,1610.7,921c524.3,633.9,723.6,1435.3,560.1,2240.6c-219.3,1076.4-1110.3,1919.7-2196.7,2081.1C3711.9,4210.1,3381,4210.1,3155.8,4174.2z M4003,3735.6c430.6-89.7,781.4-277.1,1104.4-588.1c1102.4-1060.5,821.3-2896.4-550.2-3590.2c-574.1-289-1265.8-312.9-1871.8-59.8C2318.5-350.9,1921.8-18,1700.5,322.9c-504.3,777.4-486.4,1774.2,45.8,2525.7c123.6,175.4,382.7,428.6,556.2,544.2c291,193.4,655.8,330.9,982.8,370.8C3472.7,3787.5,3821.6,3773.5,4003,3735.6z"/></g></g>
</svg>