<?xml version="1.0" encoding="utf-8"?>
<!-- Generator: Adobe Illustrator 22.0.1, SVG Export Plug-In . SVG Version: 6.00 Build 0)  -->
<svg version="1.1" id="Layer_1" xmlns="http://www.w3.org/2000/svg" xmlns:xlink="http://www.w3.org/1999/xlink" x="0px" y="0px"
	 viewBox="0 0 1280 1024" style="enable-background:new 0 0 1280 1024;" xml:space="preserve">
<style type="text/css">
	.st0{fill:#9FD18C;}
</style>
<g>
	<path class="st0" d="M899.4,22.1c-9.4,6-30,26-139.5,135.6C659.3,258.5,605.9,313,603.2,318c-1.4,2.6-1,11.6,0.6,14.8
		c1.8,3.4,7.1,8.7,10.4,10.4c1.2,0.6,4.7,1.1,7.7,1.1h5.5l12.8-11.8c20.3-18.6,55.6-53.3,144.9-142.1c45.7-45.5,87.1-86.6,92.2-91.5
		l9.2-8.9l11.6,10.8l11.6,10.8l-57.5,57.6l-57.6,57.5l76.5,76.5l76.5,76.5l33.1-33c63.6-63.4,134.5-136.5,142.6-147.1
		c4.3-5.6,6.6-17.2,6.6-32.9c0-12.3-0.3-15.1-2.7-22.8c-6.7-22-21.7-43.6-45.2-64.8c-25.8-23.3-50.7-33.9-79.8-34
		c-21.2,0-28.6,3.6-51,25.2l-13.6,13.1l-11.4-10.7l-11.5-10.7l4.4-5.7c5.4-6.9,7.5-11.8,7.4-17.3c0-8.1-4.8-15.2-12.3-18.3
		C908.7,18.5,904.5,18.9,899.4,22.1L899.4,22.1z"/>
	<path class="st0" d="M772.1,249.2c-2.1,2.2-2.6,3.6-2.2,5.5c1.1,4.2,15.9,19.7,63.2,66.2c84.1,82.6,88.7,86.6,92.7,80.2
		c1.6-2.5-0.3-5.4-11.4-17.7C899.7,367.2,778,246.3,776.3,246.3C775.6,246.3,773.6,247.6,772.1,249.2L772.1,249.2z"/>
	<path class="st0" d="M509.8,511.7L272,749.2l76.5,76.5l76.5,76.6l238.7-238.8c131.3-131.3,238.8-239,238.8-239.3
		c0-0.6-104.1-102.6-136.4-133.7c-9.2-8.9-17.2-16.2-17.7-16.2C748,274.3,640.6,381.1,509.8,511.7L509.8,511.7z"/>
	<path class="st0" d="M249.7,779.1c-0.9,1.6-7.2,17.7-34.3,86.7c-20.2,51.5-29.8,78.8-29.8,85c0,5.2-4.6,12.8-15.8,26.2
		c-13,15.5-19.6,24.1-19,24.8c1.7,1.7,29.4,4.2,35.1,3.1c2.2-0.4,7.2-3.4,12.8-7.7c5.1-3.9,10.2-7.2,11.3-7.4
		c1.1-0.2,6.3-0.6,11.5-0.8c12.4-0.5,18.1-2.5,81-27.8c27.2-11,60.9-24.5,74.8-30.1l25.3-10.2L380.8,899
		c-22.3-22.4-96.2-94.2-111.2-108.1c-9.4-8.7-15.8-13.6-17.7-13.6C251.2,777.3,250.2,778.1,249.7,779.1L249.7,779.1z"/>
</g>
</svg>
