<?xml version="1.0" encoding="utf-8"?>
<!-- Generator: Adobe Illustrator 22.0.1, SVG Export Plug-In . SVG Version: 6.00 Build 0)  -->
<svg version="1.1" id="Layer_1" xmlns="http://www.w3.org/2000/svg" xmlns:xlink="http://www.w3.org/1999/xlink" x="0px" y="0px"
	 viewBox="0 0 1280 1024" style="enable-background:new 0 0 1280 1024;" xml:space="preserve">
<style type="text/css">
	.st0{fill:#9FD18C;}
	.st1{fill:#9FD18C;stroke:#000000;stroke-width:0.25;stroke-miterlimit:10;}
</style>
<g>
	<path class="st0" d="M337.4,65c-70.7,8.9-132,52-164.1,115.4c-10.2,20.1-16.2,38.1-20.6,62l-2.2,12l-0.3,250
		c-0.2,177.7,0,253.8,0.8,263c6.3,73.8,49.9,138.4,116,172c30.7,15.6,60.3,22.7,95,22.8c19,0.1,30.2-1.1,47.9-5
		c53-11.7,100.6-44.7,131.2-91.1c5.8-8.8,16.4-28.3,18-33.2c0.4-1.1,4.2-0.3,19.4,4.3c63.5,19,132.7,27.8,207.5,26.4
		c73.6-1.4,134.8-11,192.5-30.2c72.3-24.1,121.5-58.7,141.6-99.9c2.7-5.6,5.9-13.9,7.2-18.6c2.2-8.5,2.3-8.8,2.3-83v-74.5l-2.3-8.5
		c-4.9-18.1-14.3-33.8-30.2-50.3c-17-17.7-36.1-31.4-63.4-45.2c-86.4-43.8-218.2-62.7-342-49c-14.6,1.6-17.5,2.6-21.6,7l-2.5,2.7
		v27.5V469l-4.5,1.4c-2.5,0.7-9.2,2.4-14.8,3.6l-10.3,2.3l-22.7-22.6c-12.5-12.4-24.2-23.3-26-24.3c-1.8-0.9-5.5-1.9-8.3-2.3
		l-4.9-0.6l-0.1-81.6c0-63.3-0.4-84.2-1.4-93.1c-5.9-48.6-26.3-90.7-61-125.6c-33.5-33.7-75.9-54.7-122.8-60.9
		C377.8,63.7,349.2,63.5,337.4,65L337.4,65z M377.9,92.9c37.5,3.3,73,17.6,101.6,41.1c10.2,8.3,25.9,25.1,33.6,36
		c12.7,17.9,23.8,42.3,29,63.8c4.8,19.9,4.8,22.4,4.8,147.4v117.7h-184h-184V381.1c0-95.8,0.3-119.7,1.4-128.4
		c9.4-70.2,57.6-128.7,124.5-150.9C329.6,93.6,353.1,90.7,377.9,92.9L377.9,92.9z M831.9,431.4c73.3,6.5,134.6,21.7,184,45.6
		c32.5,15.7,54.9,32.3,69,51.1c17.5,23.2,20.6,46,9.5,69.6c-4.7,10.1-8.5,15.3-19,26.1c-22.1,22.8-57.8,43.5-99.6,57.7l-9.6,3.2
		L839.3,557.8L712.4,430.9l5-0.2c2.8-0.1,10.4-0.5,17-0.9C753,428.7,812.1,429.6,831.9,431.4L831.9,431.4z M712.2,590.9l119,119.5
		l-6.9,0.6c-3.8,0.4-20.4,1-36.9,1.4c-68.9,1.7-134.6-6.1-193-22.9l-18-5.2L576.1,570l-0.2-114.3l8.6,7.8
		C589.3,467.8,646.7,525.2,712.2,590.9L712.2,590.9z M947.9,716.1c0,4.8-0.3,8.8-0.8,8.8c-0.4,0-57.1-56.4-126-125.3L695.9,474.4
		v-9.5v-9.5l126,126l126,126V716.1L947.9,716.1z M805.8,624.3c70.6,70.6,128.2,128.6,128,128.8c-1.5,1.2-44.2,9.9-53.4,10.9l-3,0.3
		l-0.2-21.5c-0.1-11.8-0.2-22.9-0.2-24.5c0-2.6-13.3-16.3-107.6-110.6L661.8,500.2l7.3-2c4-1.1,7.5-2.1,7.8-2.2
		C677.1,495.9,735.2,553.7,805.8,624.3L805.8,624.3z M546.9,643.6c0,73.5-0.4,120.1-1,125.7c-6.3,55.3-36.2,103.7-83,134.4
		c-39.3,25.8-89.6,35.4-136.3,26c-77-15.6-135.8-78.6-146.3-156.8c-1.2-8.6-1.4-32.5-1.4-128.3V526.9h184h184V643.6L546.9,643.6z
		 M1099.4,706c-4.1,19.8-20.7,41.3-45.5,58.9c-49.6,35.2-127.1,58.8-222,67.7c-26.6,2.5-93,2.5-120,0c-29.5-2.7-56.7-6.7-81-11.8
		c-20.1-4.2-59.1-14.9-61.1-16.8c-0.4-0.4,0.3-5.5,1.6-11.6c3.3-15.8,4.5-31.1,4.5-55.8c0-11.9,0.3-21.7,0.6-21.7
		c0.3,0,7,1.8,14.9,3.9c59.1,16.2,129.1,24.4,195,22.7c23.7-0.6,47.9-1.9,57.2-3.2l4.3-0.6v21.8c0,12,0.4,23.3,1,25.2
		c1.3,4.4,5.4,8.7,9.6,10.1c7.4,2.4,69.7-9,101.3-18.6c16.7-5.1,16.5-4.6,17.1-38.2l0.5-26.4l13-4.7c43.1-15.7,77.8-35.7,101.4-58.6
		l8.6-8.3l0.3,29.4C1100.8,692.4,1100.5,700.4,1099.4,706L1099.4,706z"/>
	<path class="st0" d="M379.2,123.9c-6.7,4.1-9,11.6-5.7,18.7c2.2,4.5,3.8,5.5,17.7,10.3c24,8.3,42.2,19.5,59.3,36.5
		c19.9,19.9,31.5,40.7,37.7,67.7c2.1,9,2.1,12.3,2.7,108l0.5,98.6l2.5,2.7c6.8,7.3,15.2,7.3,22,0l2.5-2.7V362
		c0-94.7-0.1-102.2-1.8-110.2c-4.7-21.7-14.3-43.9-26.4-61c-8.2-11.6-27.9-31.4-39-39.3c-17.4-12.3-35.8-21.6-54.3-27.3
		C387.8,121.4,383.4,121.3,379.2,123.9L379.2,123.9z"/>
	<path class="st1" d="M222.4,764.3c-11.5,5.2-11,16.5,2,42.8c13.7,27.7,37.6,53.2,65.5,70c9.4,5.6,16.7,9.3,20.3,10.2
		c7.1,1.7,15.7-4.3,17.1-11.8c1-5.6-2.1-11.8-7.6-14.9c-24.5-13.7-32.1-19.1-44.6-31.7c-14.1-14.2-24.9-31.3-31.2-49.5
		c-3.4-9.7-5.7-13-10.7-15.1C229.2,762.5,226.2,762.5,222.4,764.3L222.4,764.3z"/>
</g>
</svg>
