<?xml version="1.0" encoding="utf-8"?>
<!-- Generator: Adobe Illustrator 22.0.1, SVG Export Plug-In . SVG Version: 6.00 Build 0)  -->
<svg version="1.1" id="Layer_1" xmlns="http://www.w3.org/2000/svg" xmlns:xlink="http://www.w3.org/1999/xlink" x="0px" y="0px"
	 viewBox="0 0 1280 1024" style="enable-background:new 0 0 1280 1024;" xml:space="preserve">
<style type="text/css">
	.st0{opacity:0.29;fill:#9FD18C;}
</style>
<g>
	<path class="st0" d="M632.6,24.3c-1.9,0.7-10.7,6.6-19.6,13.3c-23.3,17.4-25.5,17.8-54.5,9c-10.2-3.1-20.1-5.6-22-5.6
		c-3.4,0-9.9,2.6-13.1,5.3c-0.9,0.7-6.3,8.5-12.1,17.4c-11.3,17.3-16.9,23.2-24.5,25.8c-3.2,1.1-10.8,2-23.2,2.6
		c-10.2,0.6-20.2,1.5-22.4,2c-5.1,1.3-12.3,8.1-13.6,12.8c-0.5,2-2.8,11.1-4.9,20.3s-4.8,18.4-5.9,20.5c-4.1,8-9.5,11.8-28.1,19.8
		c-20.9,9-24.1,11-26.8,16.7c-2.6,5.4-2.6,7.7,0,29.1c3.5,28.7,2.7,30.9-19.1,51.7c-8.3,7.9-15.8,15.7-16.7,17.4
		c-0.9,1.7-1.6,5.7-1.7,8.8c-0.1,5.3,0.5,6.9,9.4,24.3l9.5,18.6l-0.1,9.2l0,9.2l-9.1,18.1c-5,10-9.4,19.7-9.8,21.7
		c-0.4,2.2-0.1,5.6,0.9,9c1.5,5,2.8,6.6,17.3,20.4c16.4,15.6,19.8,20.4,21.1,29.5c0.3,2.1-0.5,12.9-1.8,23.8
		c-2.7,22.9-2.4,25.6,3.9,32.2c2.9,3.1,7.3,5.4,21.2,11.4c19.7,8.5,23.5,10.7,27.7,16.8c3.9,5.6,4.7,7.9,8.3,23.7
		c4.5,20,5.7,23.6,9.2,27.6c5.1,5.8,8,6.5,30.8,7.9c30.3,1.8,31.5,2.5,47.6,27.1c11.8,18,15.2,21.7,21.2,23.4
		c5.8,1.6,6.8,1.4,26.4-4.7c15.1-4.7,19.5-5.7,25.3-5.6c9.6,0.1,13.2,1.9,31.6,15.7c24,18,25.8,18,49.8,0
		c16.9-12.7,21.1-15,29.3-15.9c5-0.6,7.8,0,26.3,5.6c20.3,6.2,20.8,6.3,26.1,5.1c3-0.7,6.8-2.4,8.5-3.8c1.7-1.5,8.2-10.3,14.3-19.8
		c15.6-23.7,18.1-25.3,42.6-26.6c29-1.6,30.1-1.8,35.9-8.4c3.4-3.9,4.6-7.6,9.2-27.5c3.6-15.8,4.4-18.1,8.3-23.7
		c4.2-6,8-8.3,27.7-16.8c13.9-6,18.3-8.3,21.2-11.4c6.2-6.5,6.6-9.4,4-31.5c-2.7-23.3-2.7-24.1-0.1-31.3c1.9-5.2,3.9-7.6,18.9-22.3
		c15.8-15.5,16.9-16.8,18-21.7c0.7-2.9,0.9-6.6,0.5-8.5c-0.4-1.8-5-11.8-10.2-22.3l-9.5-19l0.4-8.2c0.3-8.1,0.5-8.4,9.7-26.5
		c5.1-10.1,9.5-19.9,9.8-21.9c0.3-1.9,0-5.6-0.6-8c-1-3.9-3.2-6.5-17.5-20.5c-19.1-18.6-20.9-21.5-21-33.5c0-4.1,0.8-15,1.9-24.2
		c3.1-26.5,2-28.1-26-39.8c-14.7-6.1-18.8-8.3-23.1-12.2c-6.6-6-8.2-10-13.4-32.3c-4.2-18.2-5.5-21.2-11.1-25.9
		c-4.4-3.7-8.3-4.5-28.9-5.5c-12.4-0.6-20-1.5-23.2-2.6c-7.6-2.6-13.1-8.5-24.9-26.6c-10.2-15.6-11.3-17-16.1-19.4
		c-2.8-1.4-6.7-2.5-8.6-2.5c-1.9,0-11.8,2.5-22,5.6c-29,8.8-31.2,8.4-54.6-9.1C649.6,25.2,645.6,23,639.6,23
		C637.7,23,634.5,23.6,632.6,24.3L632.6,24.3z M668.6,103.4c55.3,7,103,30.4,142,69.5c19.2,19.3,32.8,38,44.5,61.2
		c43,85.3,32.4,185.8-27.4,260.8c-32.5,40.7-78.7,70.2-130.2,83c-21.7,5.4-31.3,6.5-58,6.5c-18.9,0-27-0.4-35.5-1.8
		c-53.3-8.8-98.5-31.7-135.5-68.7c-31.1-31.1-52.7-69.3-63.4-112c-18-71.9-2.8-145.3,42.5-205.7c8.3-11.1,28.7-32,39.9-41
		c35.5-28.5,78.8-46.7,124.5-52.2C623.9,101.6,656.1,101.8,668.6,103.4L668.6,103.4z"/>
	<path class="st0" d="M338.1,767.7c-39.5,87.9-71.9,160-72.1,160.3c-0.2,0.3,6.3-0.4,14.4-1.6c8.1-1.2,31.7-4.8,52.4-8
		c20.7-3.2,38.3-5.5,39-5.3c0.7,0.3,14.1,20.3,29.7,44.6c15.6,24.3,28.7,44.1,29,44.1c0.6,0,150.9-333.5,151.8-336.8
		c0.5-1.8-1.1-1.5-17.3,3.6c-16.3,5.1-18.7,5.6-27.4,5.6c-11.9,0.1-20-2.4-29.9-9.4c-6.5-4.6-8.1-6.4-18.9-22.7L477,624.4l-14.5-0.7
		c-27.8-1.4-35.5-3.4-46.5-11.8c-2.8-2.2-5.3-3.9-5.6-3.9C410.1,607.9,377.6,679.8,338.1,767.7L338.1,767.7z"/>
	<path class="st0" d="M863.6,611.6c-5.7,4.5-15.1,9-21.5,10.2c-2.8,0.5-12.4,1.3-21.5,1.7s-17.2,1.1-18.1,1.5
		c-0.8,0.4-5.8,7.5-11,15.6c-11.4,17.8-17.3,24.1-27.3,28.8c-15.2,7.2-24.2,7-50.1-0.9c-14.5-4.4-17.7-5.1-17.4-3.7
		c1.1,4,151.4,337,152.1,336.8c0.4-0.1,13.5-20,29.1-44.2c20.4-31.6,29-44.1,30.4-44.3c1.6-0.3,97.1,13.8,103.4,15.2
		c1,0.2,1.6,0.1,1.5-0.2c-0.2-0.4-32.7-72.5-72.2-160.4S869,607.9,868.7,608C868.3,608,866.1,609.6,863.6,611.6L863.6,611.6z"/>
	<path class="st0" d="M533.6,259.9v61h12h12v-5v-5h81.5h81.5l0.3,4.8l0.3,4.8l12.3,0.3l12.3,0.3v-61v-61h-106h-106V259.9
		L533.6,259.9z M720.6,254.4v34.5h-81.5h-81.5v-34.5v-34.5h81.5h81.5V254.4L720.6,254.4z"/>
	<path class="st0" d="M502.6,416.9v71h12h12v-10v-10h35h35v10v10h12h12v-71v-71h-59h-59V416.9L502.6,416.9z M596.6,406.9v40h-35h-35
		v-40v-40h35h35V406.9L596.6,406.9z"/>
	<path class="st0" d="M658.6,416.9v71h11.5h11.5l0.3-10.3l0.3-10.3l35.3-0.3l35.3-0.3v10.5v10.5h12h12v-71v-71h-59h-59V416.9
		L658.6,416.9z M752.6,406.9v40h-35.5h-35.5v-39.4c0-21.6,0.3-39.6,0.7-40c0.4-0.4,16.3-0.7,35.5-0.7h34.8V406.9L752.6,406.9z"/>
</g>
</svg>
