<?xml version="1.0" encoding="utf-8"?>
<!-- Generator: Adobe Illustrator 22.0.1, SVG Export Plug-In . SVG Version: 6.00 Build 0)  -->
<svg version="1.1" id="Layer_1" xmlns="http://www.w3.org/2000/svg" xmlns:xlink="http://www.w3.org/1999/xlink" x="0px" y="0px"
	 viewBox="0 0 1280 1024" style="enable-background:new 0 0 1280 1024;" xml:space="preserve">
<style type="text/css">
	.st0{opacity:0.29;}
	.st1{fill:#9FD18C;}
</style>
<g class="st0">
	<path class="st1" d="M773.4,44.4l-30,21.7l-113.3,206c-62.3,113.3-114.6,208.3-116.2,211c-1.6,2.8-4.1,7-5.5,9.6l-2.6,4.6l8.2,5.9
		c11,7.9,14.8,11.8,14.8,15.2c0,3.8-9.5,23-19.2,38.9c-4.5,7.3-7.9,13.5-7.7,13.7c0.2,0.2,17.4,9,38.1,19.5l37.7,19.2l1.5-2.3
		c0.8-1.3,4-7,7.2-12.8c5.9-10.9,12.8-21.3,16.1-24.1c1.5-1.3,6.5-2.1,22.9-3.4c11.6-1,21.1-1.8,21.1-1.8
		c0.1-0.1,10.8-19.2,23.9-42.6c13.1-23.4,23.9-42.6,24-42.8c0.1-0.2,4.5,1.8,9.6,4.4c53.7,26.9,91.2,79,97.9,135.7
		c1.7,14.1,0.7,37-2.1,50.2c-8.5,40.6-32.8,78.4-66.5,103.7l-9,6.8h-99.9c-110.6,0-105.6-0.3-118.7,6.6c-13.3,7-23.5,19.1-28.6,33.9
		c-2.3,6.8-2.7,9.6-2.7,19.3v11.3h-63.3c-61.5,0-63.3,0.1-63.3,1.9c0,1.4-2.3,3-8.3,6c-25.1,12.4-40.8,36-42.4,63.6
		c-2,35.1,19.9,65.8,54.7,76.7l7.5,2.3h280.5h280.5l7.5-2.3c13.7-4.3,22.5-9.6,32.6-19.7c13.9-13.9,20.9-29.4,22.1-48.5
		c1.3-21.4-6.1-41.1-21.2-56.6c-10.7-11-20.1-16.4-36.5-21.1c-4.5-1.3-13.2-1.7-46.8-2.2l-41.3-0.6l7.1-8.8
		c32.6-40.6,60.6-103.9,71.1-160.7c6.4-34.7,2-82.7-11.1-122c-23.9-71.7-78-134.6-145.5-169.2c-5.5-2.8-10.2-5.2-10.3-5.4
		c-0.2-0.1,30.5-55.2,68.3-122.3l68.6-122.1l-0.3-36.3l-0.3-36.3l-39.5-22.4c-21.7-12.3-40-22.6-40.5-22.8
		C803.8,22.8,789.9,32.4,773.4,44.4L773.4,44.4z M822.4,87.4l14,8l0.3,17.1l0.3,17.1l-78,138.9c-42.9,76.4-78,139.3-78,139.8
		c0,0.5,7.8,3.8,17.3,7.3c41.3,15.5,72.8,35.1,100.3,62.6c46,45.9,72.4,107.5,72.4,168.7c0,44.2-27,116.8-59.9,160.8
		c-11.9,16-29.6,32.2-41.6,38.3c-6,3-14.9,5.7-18.7,5.7h-2.8V875v23.4l82.8,0.4c69,0.3,83.4,0.6,86.8,1.8c6.2,2.2,15,11.6,16.9,18
		c2,6.7,2,10.2,0.1,16.7c-1.9,6.4-8.8,14.3-15.3,17.5l-4.7,2.3h-274c-224,0-274.7-0.2-277.7-1.3c-5.2-1.8-13.3-9.4-16-15
		c-2.8-5.8-3-16.6-0.4-22.5c2.5-5.7,9-12.1,14.9-14.8l5.2-2.4l83.2-0.3l83.3-0.3v-23.3V852l-3.5-1.3c-5.1-1.9-7.5-5.4-7.5-11.3
		c0-4.3,0.5-5.5,3.4-8.4l3.4-3.4h104.8h104.8l11.1-7.5c65.6-44,102.9-114.4,100.2-189c-1.6-45.1-16.1-85-44.3-122.5
		c-23.3-30.9-57.9-57.9-94.4-73.5c-13.1-5.6-37.2-13.6-38.2-12.7c-0.5,0.5-13.2,22.7-28.1,49.3l-27.2,48.4l-7,0.7
		c-19.1,1.9-26.1,3.8-32.3,8.5c-1.8,1.4-3.2,2.1-3.2,1.7c0-0.4,0.5-3.5,1.1-7c1.8-10.2-1.6-23.7-8.6-34.4
		c-1.6-2.5-0.8-4.1,105.4-197l107-194.5l13.3-9.8c7.3-5.3,13.8-9.6,14.4-9.4C807.9,79.2,814.7,83,822.4,87.4L822.4,87.4z"/>
	<path class="st1" d="M381.4,549.9c-29.1,7.5-43.5,39-30.4,66.4c1.3,2.6,5.2,7.7,8.8,11.3c6.2,6.2,11.6,9.3,114.5,65.7
		c59.6,32.6,110.4,59.9,113.4,60.7c17.6,5.2,37.3-1.1,49.2-15.8c6.3-7.8,9-15.1,9.6-25.9c0.9-15.3-4.2-27.7-15.4-37.7
		c-3.2-2.8-17-11-36.5-21.7c-17.2-9.4-65.3-35.8-106.9-58.6c-41.5-22.8-77.8-42.2-80.5-43.2C400.9,548.9,387.8,548.2,381.4,549.9
		L381.4,549.9z"/>
</g>
</svg>
